<svg xmlns="http://www.w3.org/2000/svg" xmlns:xlink="http://www.w3.org/1999/xlink" width="1122" zoomAndPan="magnify" viewBox="0 0 841.92 595.499987" height="793" preserveAspectRatio="xMidYMid meet" version="1.0"><defs><clipPath id="00bd6ce2c1"><path d="M 0.3125 0 L 841.527344 0 L 841.527344 595 L 0.3125 595 Z M 0.3125 0 " clip-rule="nonzero"/></clipPath><clipPath id="85f52f0f48"><path d="M 197 74 L 644.804688 74 L 644.804688 520.605469 L 197 520.605469 Z M 197 74 " clip-rule="nonzero"/></clipPath><clipPath id="8e9d7793eb"><path d="M 261.839844 138.320312 L 579.972656 138.320312 L 579.972656 456.453125 L 261.839844 456.453125 Z M 261.839844 138.320312 " clip-rule="nonzero"/></clipPath><clipPath id="9d1e87aae9"><path d="M 420.90625 138.320312 C 333.054688 138.320312 261.839844 209.539062 261.839844 297.386719 C 261.839844 385.238281 333.054688 456.453125 420.90625 456.453125 C 508.753906 456.453125 579.972656 385.238281 579.972656 297.386719 C 579.972656 209.539062 508.753906 138.320312 420.90625 138.320312 Z M 420.90625 138.320312 " clip-rule="nonzero"/></clipPath></defs><g clip-path="url(#00bd6ce2c1)"><path fill="#ffffff" d="M 0.3125 0 L 841.855469 0 L 841.855469 595 L 0.3125 595 Z M 0.3125 0 " fill-opacity="1" fill-rule="nonzero"/><path fill="#ffffff" d="M 0.3125 0 L 841.855469 0 L 841.855469 595 L 0.3125 595 Z M 0.3125 0 " fill-opacity="1" fill-rule="nonzero"/></g><g clip-path="url(#85f52f0f48)"><path fill="#1437d9" d="M 598.6875 300.355469 C 598.757812 298.207031 600.382812 295.664062 602.308594 294.699219 L 641.332031 275.15625 C 643.253906 274.195312 644.550781 271.671875 644.207031 269.550781 L 635.210938 228.082031 C 634.636719 226.011719 632.410156 224.203125 630.265625 224.0625 L 585.882812 221.195312 C 583.738281 221.054688 581.1875 219.375 580.21875 217.457031 L 574.183594 206.359375 C 573.101562 204.503906 573.113281 201.472656 574.210938 199.625 L 596.621094 161.835938 C 597.71875 159.988281 597.457031 157.15625 596.039062 155.539062 L 565.84375 124.746094 C 564.253906 123.300781 561.417969 122.96875 559.539062 124.011719 L 520.921875 145.441406 C 519.042969 146.484375 516.003906 146.425781 514.164062 145.3125 L 503.726562 139.386719 C 501.832031 138.378906 500.214844 135.796875 500.136719 133.648438 L 498.550781 89.378906 C 498.472656 87.234375 496.726562 84.96875 494.667969 84.347656 L 452.84375 74.339844 C 450.730469 73.957031 448.167969 75.191406 447.152344 77.085938 L 426.382812 115.746094 C 425.367188 117.636719 423.644531 119.167969 422.558594 119.148438 L 421.570312 119.148438 C 415.542969 119.148438 407.613281 119.746094 407.613281 119.746094 C 405.46875 119.90625 402.710938 118.597656 401.488281 116.832031 L 376.097656 80.277344 C 374.875 78.515625 372.175781 77.539062 370.105469 78.113281 L 330.15625 91.589844 C 328.164062 92.390625 326.671875 94.800781 326.839844 96.941406 L 330.242188 140.390625 C 330.410156 142.53125 329.070312 145.238281 327.265625 146.402344 L 314.566406 155.195312 C 312.839844 156.476562 309.804688 156.855469 307.816406 156.03125 L 266.6875 139.003906 C 264.703125 138.179688 261.902344 138.816406 260.464844 140.414062 L 234.832031 172.199219 C 233.574219 173.941406 233.609375 176.769531 234.90625 178.480469 L 261.136719 213.023438 C 262.433594 214.734375 262.757812 217.730469 261.855469 219.679688 L 254.722656 236.757812 C 253.96875 238.769531 251.621094 240.726562 249.507812 241.109375 L 205.871094 248.988281 C 203.757812 249.371094 201.75 251.417969 201.414062 253.542969 C 201.414062 253.542969 197.144531 280.375 197.144531 296.394531 L 197.144531 296.480469 C 197.144531 296.574219 198.800781 297.253906 200.816406 297.992188 L 241.539062 312.863281 C 243.554688 313.601562 245.453125 315.945312 245.757812 318.070312 L 249.574219 338.886719 C 250.050781 340.980469 249.15625 343.890625 247.582031 345.355469 L 215.332031 375.394531 C 213.757812 376.859375 213.195312 379.65625 214.085938 381.617188 L 231.675781 415.71875 C 232.757812 417.574219 235.359375 418.707031 237.457031 418.238281 L 279.933594 408.691406 C 282.03125 408.222656 284.910156 409.152344 286.332031 410.765625 L 301.992188 427.046875 C 303.542969 428.53125 304.382812 431.449219 303.851562 433.53125 L 293.039062 475.917969 C 292.507812 478 293.558594 480.644531 295.375 481.792969 L 328.535156 500.480469 C 330.457031 501.441406 333.265625 500.972656 334.777344 499.445312 L 365.535156 468.261719 C 367.042969 466.734375 369.976562 465.9375 372.050781 466.496094 L 393.921875 471.355469 C 396.039062 471.734375 398.324219 473.710938 399.003906 475.75 L 412.730469 516.964844 C 413.40625 519.003906 415.71875 520.722656 417.867188 520.785156 C 417.867188 520.785156 419.019531 520.816406 421.566406 520.816406 C 434.757812 520.816406 456.375 517.992188 456.375 517.992188 C 458.507812 517.710938 460.613281 515.761719 461.054688 513.660156 L 470.136719 470.484375 C 470.582031 468.382812 472.609375 466.105469 474.648438 465.421875 L 493.890625 458.128906 C 495.867188 457.285156 498.851562 457.695312 500.527344 459.042969 L 534.28125 486.238281 C 535.953125 487.585938 538.777344 487.699219 540.554688 486.492188 L 572.242188 462.464844 C 573.882812 461.074219 574.597656 458.296875 573.835938 456.289062 L 558.035156 414.789062 C 557.269531 412.78125 557.734375 409.757812 559.066406 408.074219 L 569.527344 393.8125 C 570.734375 392.039062 573.472656 390.769531 575.609375 391 L 618.796875 395.636719 C 620.933594 395.867188 623.375 394.4375 624.226562 392.464844 L 638.375 353.78125 C 639 351.726562 638.101562 349 636.371094 347.726562 L 600.53125 321.273438 C 598.800781 320 597.554688 317.203125 597.757812 315.066406 Z M 420.992188 428.019531 C 348.761719 428.019531 290.203125 369.464844 290.203125 297.230469 C 290.203125 225 348.757812 166.441406 420.992188 166.441406 C 493.226562 166.441406 551.78125 224.996094 551.78125 297.230469 C 551.78125 369.464844 493.226562 428.019531 420.992188 428.019531 Z M 420.992188 428.019531 " fill-opacity="1" fill-rule="nonzero"/></g><g clip-path="url(#8e9d7793eb)"><g clip-path="url(#9d1e87aae9)"><path fill="#ffffff" d="M 261.839844 138.320312 L 579.972656 138.320312 L 579.972656 456.453125 L 261.839844 456.453125 Z M 261.839844 138.320312 " fill-opacity="1" fill-rule="nonzero"/></g></g></svg>