<svg xmlns="http://www.w3.org/2000/svg" xmlns:xlink="http://www.w3.org/1999/xlink" width="1122" zoomAndPan="magnify" viewBox="0 0 841.92 595.499987" height="793" preserveAspectRatio="xMidYMid meet" version="1.0"><defs><g/><clipPath id="040c570485"><path d="M 0.3125 0 L 841.527344 0 L 841.527344 595 L 0.3125 595 Z M 0.3125 0 " clip-rule="nonzero"/></clipPath><clipPath id="ab69898c1c"><path d="M 260.292969 107.476562 L 581 107.476562 L 581 427.457031 L 260.292969 427.457031 Z M 260.292969 107.476562 " clip-rule="nonzero"/></clipPath><clipPath id="09760df6dd"><path d="M 306.96875 153.566406 L 534.84375 153.566406 L 534.84375 381.441406 L 306.96875 381.441406 Z M 306.96875 153.566406 " clip-rule="nonzero"/></clipPath><clipPath id="9d572ae1b4"><path d="M 420.90625 153.566406 C 357.980469 153.566406 306.96875 204.578125 306.96875 267.503906 C 306.96875 330.429688 357.980469 381.441406 420.90625 381.441406 C 483.832031 381.441406 534.84375 330.429688 534.84375 267.503906 C 534.84375 204.578125 483.832031 153.566406 420.90625 153.566406 Z M 420.90625 153.566406 " clip-rule="nonzero"/></clipPath></defs><g clip-path="url(#040c570485)"><path fill="#ffffff" d="M 0.3125 0 L 841.855469 0 L 841.855469 595 L 0.3125 595 Z M 0.3125 0 " fill-opacity="1" fill-rule="nonzero"/><path fill="#ffffff" d="M 0.3125 0 L 841.855469 0 L 841.855469 595 L 0.3125 595 Z M 0.3125 0 " fill-opacity="1" fill-rule="nonzero"/></g><g clip-path="url(#ab69898c1c)"><path fill="#1437d9" d="M 548.25 269.628906 C 548.296875 268.089844 549.464844 266.269531 550.839844 265.578125 L 578.796875 251.582031 C 580.171875 250.890625 581.097656 249.085938 580.855469 247.5625 L 574.410156 217.859375 C 574 216.375 572.402344 215.082031 570.867188 214.984375 L 539.078125 212.925781 C 537.539062 212.828125 535.714844 211.625 535.019531 210.25 L 530.695312 202.300781 C 529.921875 200.972656 529.929688 198.800781 530.714844 197.476562 L 546.769531 170.410156 C 547.554688 169.085938 547.367188 167.054688 546.351562 165.898438 L 524.722656 143.84375 C 523.585938 142.804688 521.550781 142.570312 520.207031 143.316406 L 492.546875 158.664062 C 491.199219 159.414062 489.019531 159.371094 487.703125 158.574219 L 480.230469 154.328125 C 478.871094 153.605469 477.710938 151.757812 477.65625 150.21875 L 476.519531 118.507812 C 476.464844 116.96875 475.214844 115.347656 473.742188 114.902344 L 443.78125 107.734375 C 442.265625 107.460938 440.433594 108.34375 439.703125 109.703125 L 424.828125 137.394531 C 424.097656 138.75 422.867188 139.847656 422.089844 139.832031 L 421.378906 139.832031 C 417.0625 139.832031 411.382812 140.261719 411.382812 140.261719 C 409.847656 140.375 407.871094 139.4375 406.996094 138.171875 L 388.808594 111.988281 C 387.929688 110.726562 386 110.027344 384.515625 110.4375 L 355.902344 120.089844 C 354.472656 120.664062 353.402344 122.390625 353.523438 123.925781 L 355.960938 155.046875 C 356.082031 156.582031 355.121094 158.519531 353.828125 159.355469 L 344.730469 165.652344 C 343.496094 166.570312 341.320312 166.839844 339.898438 166.25 L 310.4375 154.054688 C 309.015625 153.464844 307.007812 153.917969 305.980469 155.0625 L 287.617188 177.832031 C 286.71875 179.082031 286.742188 181.105469 287.671875 182.332031 L 306.460938 207.074219 C 307.390625 208.300781 307.625 210.445312 306.976562 211.84375 L 301.867188 224.074219 C 301.328125 225.515625 299.644531 226.917969 298.132812 227.191406 L 266.875 232.835938 C 265.359375 233.109375 263.921875 234.578125 263.679688 236.097656 C 263.679688 236.097656 260.625 255.320312 260.625 266.792969 L 260.625 266.855469 C 260.625 266.921875 261.808594 267.410156 263.253906 267.9375 L 292.421875 278.589844 C 293.867188 279.117188 295.226562 280.796875 295.445312 282.320312 L 298.179688 297.230469 C 298.519531 298.730469 297.878906 300.816406 296.753906 301.867188 L 273.648438 323.382812 C 272.523438 324.429688 272.121094 326.433594 272.757812 327.835938 L 285.355469 352.265625 C 286.132812 353.59375 287.996094 354.40625 289.5 354.070312 L 319.925781 347.230469 C 321.429688 346.894531 323.488281 347.5625 324.507812 348.714844 L 335.726562 360.378906 C 336.835938 361.441406 337.4375 363.53125 337.058594 365.023438 L 329.3125 395.386719 C 328.933594 396.878906 329.683594 398.773438 330.984375 399.59375 L 354.738281 412.980469 C 356.117188 413.667969 358.128906 413.332031 359.207031 412.238281 L 381.242188 389.902344 C 382.324219 388.804688 384.421875 388.238281 385.910156 388.636719 L 401.578125 392.117188 C 403.089844 392.390625 404.730469 393.804688 405.214844 395.265625 L 415.046875 424.789062 C 415.53125 426.25 417.1875 427.480469 418.726562 427.523438 C 418.726562 427.523438 419.554688 427.546875 421.375 427.546875 C 430.824219 427.546875 446.3125 425.523438 446.3125 425.523438 C 447.835938 425.324219 449.34375 423.925781 449.660156 422.421875 L 456.167969 391.492188 C 456.484375 389.988281 457.9375 388.355469 459.398438 387.867188 L 473.183594 382.640625 C 474.597656 382.039062 476.738281 382.332031 477.933594 383.300781 L 502.113281 402.777344 C 503.3125 403.742188 505.335938 403.824219 506.609375 402.960938 L 529.304688 385.75 C 530.480469 384.753906 530.996094 382.765625 530.445312 381.324219 L 519.128906 351.601562 C 518.582031 350.160156 518.914062 347.996094 519.867188 346.789062 L 527.359375 336.574219 C 528.226562 335.300781 530.1875 334.394531 531.71875 334.558594 L 562.652344 337.878906 C 564.183594 338.046875 565.933594 337.023438 566.542969 335.609375 L 576.675781 307.898438 C 577.125 306.425781 576.480469 304.472656 575.242188 303.5625 L 549.570312 284.613281 C 548.328125 283.699219 547.4375 281.699219 547.582031 280.167969 Z M 420.964844 361.074219 C 369.226562 361.074219 327.28125 319.132812 327.28125 267.390625 C 327.28125 215.652344 369.222656 173.707031 420.964844 173.707031 C 472.707031 173.707031 514.648438 215.652344 514.648438 267.390625 C 514.648438 319.132812 472.707031 361.074219 420.964844 361.074219 Z M 420.964844 361.074219 " fill-opacity="1" fill-rule="nonzero"/></g><g clip-path="url(#09760df6dd)"><g clip-path="url(#9d572ae1b4)"><path fill="#ffffff" d="M 306.96875 153.566406 L 534.84375 153.566406 L 534.84375 381.441406 L 306.96875 381.441406 Z M 306.96875 153.566406 " fill-opacity="1" fill-rule="nonzero"/></g></g><g fill="#d99414" fill-opacity="1"><g transform="translate(330.236185, 292.861686)"><g><path d="M 9.875 -54.4375 C 11.476562 -54.4375 12.835938 -53.890625 13.953125 -52.796875 C 15.066406 -51.710938 15.625 -50.367188 15.625 -48.765625 C 15.625 -47.148438 15.066406 -45.796875 13.953125 -44.703125 C 12.835938 -43.617188 11.476562 -43.078125 9.875 -43.078125 C 8.320312 -43.078125 7 -43.617188 5.90625 -44.703125 C 4.820312 -45.796875 4.28125 -47.148438 4.28125 -48.765625 C 4.28125 -50.367188 4.820312 -51.710938 5.90625 -52.796875 C 7 -53.890625 8.320312 -54.4375 9.875 -54.4375 Z M 14.9375 -37.71875 L 14.9375 0 L 4.828125 0 L 4.828125 -37.71875 Z M 14.9375 -37.71875 "/></g></g></g><g fill="#d99414" fill-opacity="1"><g transform="translate(351.6198, 292.861686)"><g><path d="M 22.78125 -44.484375 L 16.5625 -44.484375 L 16.5625 -28.3125 L 22.9375 -28.3125 C 25.945312 -28.3125 28.4375 -28.921875 30.40625 -30.140625 C 32.375 -31.359375 33.359375 -33.363281 33.359375 -36.15625 C 33.359375 -39.113281 32.425781 -41.238281 30.5625 -42.53125 C 28.695312 -43.832031 26.101562 -44.484375 22.78125 -44.484375 Z M 37.25 0 L 26.046875 -20.21875 C 25.484375 -20.164062 24.890625 -20.125 24.265625 -20.09375 C 23.640625 -20.070312 23.015625 -20.0625 22.390625 -20.0625 L 16.5625 -20.0625 L 16.5625 0 L 6.53125 0 L 6.53125 -52.875 L 23.09375 -52.875 C 28.851562 -52.875 33.78125 -51.550781 37.875 -48.90625 C 41.96875 -46.269531 44.015625 -42.175781 44.015625 -36.625 C 44.015625 -33.363281 43.171875 -30.550781 41.484375 -28.1875 C 39.796875 -25.832031 37.632812 -24.003906 35 -22.703125 L 47.984375 0 Z M 37.25 0 "/></g></g></g><g fill="#d99414" fill-opacity="1"><g transform="translate(401.851807, 292.861686)"><g><path d="M 4.4375 -26.203125 C 4.4375 -34.347656 6.5625 -41 10.8125 -46.15625 C 15.0625 -51.3125 21.046875 -53.96875 28.765625 -54.125 C 37.066406 -54.125 43.210938 -51.453125 47.203125 -46.109375 C 51.191406 -40.773438 53.1875 -34.320312 53.1875 -26.75 C 53.1875 -18.5625 51.046875 -11.875 46.765625 -6.6875 C 42.492188 -1.5 36.492188 1.09375 28.765625 1.09375 C 20.523438 1.09375 14.410156 -1.5625 10.421875 -6.875 C 6.429688 -12.195312 4.4375 -18.640625 4.4375 -26.203125 Z M 14.9375 -26.28125 C 14.9375 -20.738281 16.050781 -16.203125 18.28125 -12.671875 C 20.507812 -9.148438 23.984375 -7.390625 28.703125 -7.390625 C 32.953125 -7.390625 36.34375 -8.96875 38.875 -12.125 C 41.414062 -15.289062 42.6875 -20.164062 42.6875 -26.75 C 42.6875 -32.25 41.570312 -36.757812 39.34375 -40.28125 C 37.113281 -43.8125 33.640625 -45.578125 28.921875 -45.578125 C 24.773438 -45.578125 21.40625 -43.835938 18.8125 -40.359375 C 16.226562 -36.890625 14.9375 -32.195312 14.9375 -26.28125 Z M 14.9375 -26.28125 "/></g></g></g><g fill="#d99414" fill-opacity="1"><g transform="translate(460.948279, 292.861686)"><g><path d="M 26.28125 -52.875 C 31.414062 -52.875 35.585938 -51.742188 38.796875 -49.484375 C 42.015625 -47.234375 43.625 -43.441406 43.625 -38.109375 C 43.625 -36.140625 43.171875 -34.363281 42.265625 -32.78125 C 41.359375 -31.195312 40.179688 -29.835938 38.734375 -28.703125 C 41.109375 -27.453125 43.0625 -25.765625 44.59375 -23.640625 C 46.125 -21.515625 46.890625 -18.816406 46.890625 -15.546875 C 46.890625 -10.679688 45.191406 -6.875 41.796875 -4.125 C 38.398438 -1.375 33.878906 0 28.234375 0 L 6.53125 0 L 6.53125 -52.875 Z M 24.8125 -44.484375 L 16.5625 -44.484375 L 16.5625 -31.34375 L 24.03125 -31.34375 C 26.832031 -31.34375 29.019531 -31.875 30.59375 -32.9375 C 32.175781 -34 32.96875 -35.671875 32.96875 -37.953125 C 32.96875 -40.441406 32.242188 -42.148438 30.796875 -43.078125 C 29.347656 -44.015625 27.351562 -44.484375 24.8125 -44.484375 Z M 28.15625 -23.171875 L 16.5625 -23.171875 L 16.5625 -8.328125 L 27.453125 -8.328125 C 30.148438 -8.328125 32.3125 -8.945312 33.9375 -10.1875 C 35.570312 -11.425781 36.390625 -13.1875 36.390625 -15.46875 C 36.390625 -17.957031 35.640625 -19.863281 34.140625 -21.1875 C 32.640625 -22.507812 30.644531 -23.171875 28.15625 -23.171875 Z M 28.15625 -23.171875 "/></g></g></g><g fill="#1437d9" fill-opacity="1"><g transform="translate(334.782905, 316.752664)"><g><path d="M 0.140625 -15.59375 L 12.75 -15.59375 L 13.234375 -13.265625 L 7.890625 -13.265625 L 7.890625 0 L 4.890625 0 L 4.890625 -13.265625 L 0.140625 -13.265625 Z M 0.140625 -15.59375 "/></g></g></g><g fill="#1437d9" fill-opacity="1"><g transform="translate(348.56692, 316.752664)"><g><path d="M 12.84375 0 L 1.921875 0 L 1.921875 -15.59375 L 11.234375 -15.59375 L 11.703125 -13.265625 L 4.890625 -13.265625 L 4.890625 -9.0625 L 9.0625 -9.0625 L 9.546875 -6.703125 L 4.890625 -6.703125 L 4.890625 -2.3125 L 12.359375 -2.3125 Z M 12.84375 0 "/></g></g></g><g fill="#1437d9" fill-opacity="1"><g transform="translate(362.305062, 316.752664)"><g><path d="M 11.578125 -12.78125 C 10.847656 -13.007812 10.269531 -13.171875 9.84375 -13.265625 C 9.414062 -13.367188 8.894531 -13.421875 8.28125 -13.421875 C 7.039062 -13.421875 6.082031 -12.914062 5.40625 -11.90625 C 4.738281 -10.894531 4.40625 -9.507812 4.40625 -7.75 C 4.40625 -6.238281 4.6875 -4.929688 5.25 -3.828125 C 5.8125 -2.722656 6.757812 -2.171875 8.09375 -2.171875 C 8.75 -2.171875 9.363281 -2.238281 9.9375 -2.375 C 10.507812 -2.519531 11.035156 -2.691406 11.515625 -2.890625 L 12.640625 -0.6875 C 12.046875 -0.382812 11.328125 -0.140625 10.484375 0.046875 C 9.640625 0.234375 8.894531 0.328125 8.25 0.328125 C 5.820312 0.328125 4.054688 -0.453125 2.953125 -2.015625 C 1.859375 -3.578125 1.3125 -5.484375 1.3125 -7.734375 C 1.3125 -10.128906 1.914062 -12.09375 3.125 -13.625 C 4.34375 -15.15625 6.09375 -15.921875 8.375 -15.921875 C 8.832031 -15.921875 9.460938 -15.84375 10.265625 -15.6875 C 11.078125 -15.53125 11.820312 -15.269531 12.5 -14.90625 Z M 11.578125 -12.78125 "/></g></g></g><g fill="#1437d9" fill-opacity="1"><g transform="translate(376.341363, 316.752664)"><g><path d="M 4.890625 -15.71875 L 4.890625 -8.984375 L 11.03125 -8.984375 L 11.03125 -15.59375 L 13.984375 -15.59375 L 13.984375 0 L 11.03125 0 L 11.03125 -6.609375 L 4.890625 -6.609375 L 4.890625 0 L 1.921875 0 L 1.921875 -15.59375 Z M 4.890625 -15.71875 "/></g></g></g><g fill="#1437d9" fill-opacity="1"><g transform="translate(392.694107, 316.752664)"><g><path d="M 15.09375 -15.59375 L 15.09375 0 L 12.109375 0 L 4.890625 -10.4375 L 4.890625 0 L 1.921875 0 L 1.921875 -15.59375 L 4.890625 -15.59375 L 12.109375 -5.1875 L 12.109375 -15.59375 Z M 15.09375 -15.59375 "/></g></g></g><g fill="#1437d9" fill-opacity="1"><g transform="translate(410.147739, 316.752664)"><g><path d="M 1.3125 -7.734375 C 1.3125 -10.128906 1.9375 -12.085938 3.1875 -13.609375 C 4.4375 -15.128906 6.203125 -15.914062 8.484375 -15.96875 C 10.929688 -15.96875 12.742188 -15.175781 13.921875 -13.59375 C 15.097656 -12.019531 15.6875 -10.117188 15.6875 -7.890625 C 15.6875 -5.472656 15.054688 -3.5 13.796875 -1.96875 C 12.535156 -0.4375 10.765625 0.328125 8.484375 0.328125 C 6.054688 0.328125 4.253906 -0.453125 3.078125 -2.015625 C 1.898438 -3.585938 1.3125 -5.492188 1.3125 -7.734375 Z M 4.40625 -7.75 C 4.40625 -6.113281 4.734375 -4.773438 5.390625 -3.734375 C 6.046875 -2.691406 7.070312 -2.171875 8.46875 -2.171875 C 9.71875 -2.171875 10.71875 -2.640625 11.46875 -3.578125 C 12.21875 -4.515625 12.59375 -5.953125 12.59375 -7.890625 C 12.59375 -9.515625 12.265625 -10.84375 11.609375 -11.875 C 10.953125 -12.914062 9.925781 -13.4375 8.53125 -13.4375 C 7.3125 -13.4375 6.316406 -12.925781 5.546875 -11.90625 C 4.785156 -10.882812 4.40625 -9.5 4.40625 -7.75 Z M 4.40625 -7.75 "/></g></g></g><g fill="#1437d9" fill-opacity="1"><g transform="translate(427.57844, 316.752664)"><g><path d="M 12.21875 0 L 1.921875 0 L 1.921875 -15.59375 L 4.890625 -15.59375 L 4.890625 -2.3125 L 11.765625 -2.3125 Z M 12.21875 0 "/></g></g></g><g fill="#1437d9" fill-opacity="1"><g transform="translate(440.467986, 316.752664)"><g><path d="M 1.3125 -7.734375 C 1.3125 -10.128906 1.9375 -12.085938 3.1875 -13.609375 C 4.4375 -15.128906 6.203125 -15.914062 8.484375 -15.96875 C 10.929688 -15.96875 12.742188 -15.175781 13.921875 -13.59375 C 15.097656 -12.019531 15.6875 -10.117188 15.6875 -7.890625 C 15.6875 -5.472656 15.054688 -3.5 13.796875 -1.96875 C 12.535156 -0.4375 10.765625 0.328125 8.484375 0.328125 C 6.054688 0.328125 4.253906 -0.453125 3.078125 -2.015625 C 1.898438 -3.585938 1.3125 -5.492188 1.3125 -7.734375 Z M 4.40625 -7.75 C 4.40625 -6.113281 4.734375 -4.773438 5.390625 -3.734375 C 6.046875 -2.691406 7.070312 -2.171875 8.46875 -2.171875 C 9.71875 -2.171875 10.71875 -2.640625 11.46875 -3.578125 C 12.21875 -4.515625 12.59375 -5.953125 12.59375 -7.890625 C 12.59375 -9.515625 12.265625 -10.84375 11.609375 -11.875 C 10.953125 -12.914062 9.925781 -13.4375 8.53125 -13.4375 C 7.3125 -13.4375 6.316406 -12.925781 5.546875 -11.90625 C 4.785156 -10.882812 4.40625 -9.5 4.40625 -7.75 Z M 4.40625 -7.75 "/></g></g></g><g fill="#1437d9" fill-opacity="1"><g transform="translate(457.898687, 316.752664)"><g><path d="M 7.78125 -8.53125 L 13.46875 -8.53125 L 13.46875 -0.828125 C 12.863281 -0.503906 12.140625 -0.226562 11.296875 0 C 10.460938 0.21875 9.566406 0.328125 8.609375 0.328125 C 6.171875 0.328125 4.34375 -0.453125 3.125 -2.015625 C 1.914062 -3.585938 1.3125 -5.492188 1.3125 -7.734375 C 1.3125 -10.097656 2 -12.050781 3.375 -13.59375 C 4.75 -15.144531 6.613281 -15.921875 8.96875 -15.921875 C 9.425781 -15.921875 10.078125 -15.84375 10.921875 -15.6875 C 11.773438 -15.53125 12.546875 -15.269531 13.234375 -14.90625 L 12.296875 -12.78125 C 11.617188 -12.976562 11.070312 -13.132812 10.65625 -13.25 C 10.238281 -13.363281 9.691406 -13.421875 9.015625 -13.421875 C 7.640625 -13.421875 6.523438 -12.945312 5.671875 -12 C 4.828125 -11.0625 4.40625 -9.644531 4.40625 -7.75 C 4.40625 -6.039062 4.75 -4.679688 5.4375 -3.671875 C 6.132812 -2.671875 7.164062 -2.171875 8.53125 -2.171875 C 9.039062 -2.171875 9.476562 -2.195312 9.84375 -2.25 C 10.207031 -2.3125 10.523438 -2.375 10.796875 -2.4375 L 10.796875 -6.234375 L 7.53125 -6.234375 Z M 7.78125 -8.53125 "/></g></g></g><g fill="#1437d9" fill-opacity="1"><g transform="translate(473.379897, 316.752664)"><g><path d="M 4.890625 -15.59375 L 4.890625 0 L 1.921875 0 L 1.921875 -15.59375 Z M 4.890625 -15.59375 "/></g></g></g><g fill="#1437d9" fill-opacity="1"><g transform="translate(480.627402, 316.752664)"><g><path d="M 12.84375 0 L 1.921875 0 L 1.921875 -15.59375 L 11.234375 -15.59375 L 11.703125 -13.265625 L 4.890625 -13.265625 L 4.890625 -9.0625 L 9.0625 -9.0625 L 9.546875 -6.703125 L 4.890625 -6.703125 L 4.890625 -2.3125 L 12.359375 -2.3125 Z M 12.84375 0 "/></g></g></g><g fill="#1437d9" fill-opacity="1"><g transform="translate(494.365542, 316.752664)"><g><path d="M 1.90625 -3.4375 C 2.375 -3.195312 2.972656 -2.953125 3.703125 -2.703125 C 4.441406 -2.460938 5.140625 -2.34375 5.796875 -2.34375 C 6.734375 -2.34375 7.4375 -2.488281 7.90625 -2.78125 C 8.375 -3.070312 8.609375 -3.488281 8.609375 -4.03125 C 8.609375 -4.550781 8.296875 -5.015625 7.671875 -5.421875 C 7.054688 -5.828125 6.375 -6.222656 5.625 -6.609375 C 4.519531 -7.171875 3.46875 -7.828125 2.46875 -8.578125 C 1.46875 -9.335938 0.96875 -10.410156 0.96875 -11.796875 C 0.96875 -12.972656 1.429688 -13.960938 2.359375 -14.765625 C 3.296875 -15.566406 4.617188 -15.96875 6.328125 -15.96875 C 7.109375 -15.96875 7.890625 -15.84375 8.671875 -15.59375 C 9.453125 -15.351562 10.140625 -15.085938 10.734375 -14.796875 L 9.75 -12.40625 C 9.269531 -12.632812 8.753906 -12.851562 8.203125 -13.0625 C 7.660156 -13.269531 7.050781 -13.375 6.375 -13.375 C 5.71875 -13.375 5.160156 -13.242188 4.703125 -12.984375 C 4.253906 -12.722656 4.03125 -12.328125 4.03125 -11.796875 C 4.03125 -11.222656 4.300781 -10.75 4.84375 -10.375 C 5.394531 -10 6.050781 -9.625 6.8125 -9.25 L 6.96875 -9.15625 C 8.070312 -8.582031 9.128906 -7.910156 10.140625 -7.140625 C 11.160156 -6.367188 11.671875 -5.316406 11.671875 -3.984375 C 11.671875 -2.753906 11.171875 -1.734375 10.171875 -0.921875 C 9.171875 -0.109375 7.726562 0.296875 5.84375 0.296875 C 5.1875 0.296875 4.34375 0.148438 3.3125 -0.140625 C 2.28125 -0.429688 1.585938 -0.726562 1.234375 -1.03125 Z M 1.90625 -3.4375 "/></g></g></g><g fill="#1437d9" fill-opacity="1"><g transform="translate(239.755595, 363.051932)"><g><path d="M 4.46875 4.75 C 3.988281 4.988281 3.492188 5.007812 2.984375 4.8125 C 2.484375 4.625 2.117188 4.296875 1.890625 3.828125 C 1.640625 3.304688 1.597656 2.804688 1.765625 2.328125 C 1.929688 1.847656 2.253906 1.488281 2.734375 1.25 L 18.890625 -6.734375 C 19.378906 -6.972656 19.867188 -7.003906 20.359375 -6.828125 C 20.847656 -6.648438 21.222656 -6.304688 21.484375 -5.796875 C 21.703125 -5.347656 21.734375 -4.867188 21.578125 -4.359375 C 21.429688 -3.847656 21.113281 -3.472656 20.625 -3.234375 Z M 4.46875 4.75 "/></g></g></g><g fill="#1437d9" fill-opacity="1"><g transform="translate(245.396941, 374.538332)"><g><path d="M 20.21875 0.484375 C 21.019531 1.796875 21.351562 2.960938 21.21875 3.984375 C 21.082031 5.003906 20.632812 5.921875 19.875 6.734375 C 19.113281 7.554688 18.175781 8.304688 17.0625 8.984375 L 10.25 13.140625 C 9.789062 13.429688 9.3125 13.519531 8.8125 13.40625 C 8.320312 13.289062 7.9375 13 7.65625 12.53125 C 7.375 12.070312 7.296875 11.597656 7.421875 11.109375 C 7.546875 10.617188 7.835938 10.226562 8.296875 9.9375 L 15.109375 5.78125 C 15.703125 5.425781 16.1875 5.03125 16.5625 4.59375 C 16.9375 4.15625 17.144531 3.65625 17.1875 3.09375 C 17.238281 2.539062 17.039062 1.898438 16.59375 1.171875 C 16.164062 0.453125 15.65625 -0.0625 15.0625 -0.375 C 14.476562 -0.695312 13.875 -0.84375 13.25 -0.8125 C 12.632812 -0.78125 12.03125 -0.585938 11.4375 -0.234375 L 4.625 3.921875 C 4.164062 4.210938 3.6875 4.300781 3.1875 4.1875 C 2.695312 4.070312 2.3125 3.785156 2.03125 3.328125 C 1.75 2.867188 1.671875 2.394531 1.796875 1.90625 C 1.929688 1.414062 2.226562 1.023438 2.6875 0.734375 L 13.671875 -5.96875 C 14.140625 -6.25 14.617188 -6.332031 15.109375 -6.21875 C 15.609375 -6.101562 16 -5.816406 16.28125 -5.359375 C 16.5625 -4.898438 16.632812 -4.425781 16.5 -3.9375 C 16.375 -3.445312 16.078125 -3.0625 15.609375 -2.78125 L 14.46875 -2.078125 L 14.3125 -2.53125 C 14.707031 -2.550781 15.171875 -2.515625 15.703125 -2.421875 C 16.234375 -2.335938 16.773438 -2.179688 17.328125 -1.953125 C 17.878906 -1.734375 18.40625 -1.421875 18.90625 -1.015625 C 19.414062 -0.617188 19.851562 -0.117188 20.21875 0.484375 Z M 20.21875 0.484375 "/></g></g></g><g fill="#1437d9" fill-opacity="1"><g transform="translate(257.641352, 393.902354)"><g><path d="M 14.40625 -8.125 L 18.859375 -2.234375 C 19.160156 -1.828125 19.28125 -1.390625 19.21875 -0.921875 C 19.15625 -0.453125 18.921875 -0.0664062 18.515625 0.234375 C 18.140625 0.523438 17.71875 0.632812 17.25 0.5625 C 16.789062 0.488281 16.410156 0.25 16.109375 -0.15625 L 11.65625 -6.046875 C 11.351562 -6.441406 11.234375 -6.867188 11.296875 -7.328125 C 11.359375 -7.796875 11.585938 -8.179688 11.984375 -8.484375 C 12.367188 -8.773438 12.789062 -8.882812 13.25 -8.8125 C 13.71875 -8.75 14.101562 -8.519531 14.40625 -8.125 Z M 19.5 -7.8125 C 19.832031 -7.375 19.957031 -6.910156 19.875 -6.421875 C 19.789062 -5.929688 19.535156 -5.523438 19.109375 -5.203125 L 8.03125 3.1875 C 7.800781 3.363281 7.648438 3.550781 7.578125 3.75 C 7.503906 3.957031 7.492188 4.160156 7.546875 4.359375 C 7.597656 4.566406 7.691406 4.765625 7.828125 4.953125 C 7.972656 5.148438 8.144531 5.304688 8.34375 5.421875 C 8.550781 5.535156 8.734375 5.695312 8.890625 5.90625 C 9.066406 6.144531 9.117188 6.4375 9.046875 6.78125 C 8.984375 7.132812 8.757812 7.457031 8.375 7.75 C 7.90625 8.101562 7.328125 8.140625 6.640625 7.859375 C 5.960938 7.578125 5.40625 7.144531 4.96875 6.5625 C 4.707031 6.21875 4.441406 5.8125 4.171875 5.34375 C 3.910156 4.875 3.75 4.367188 3.6875 3.828125 C 3.632812 3.285156 3.75 2.710938 4.03125 2.109375 C 4.3125 1.515625 4.851562 0.914062 5.65625 0.3125 L 16.859375 -8.171875 C 17.285156 -8.492188 17.75 -8.617188 18.25 -8.546875 C 18.757812 -8.484375 19.175781 -8.238281 19.5 -7.8125 Z M 19.5 -7.8125 "/></g></g></g><g fill="#1437d9" fill-opacity="1"><g transform="translate(268.013302, 407.480044)"><g><path d="M 6.484375 7.46875 C 5.285156 6.175781 4.515625 4.800781 4.171875 3.34375 C 3.828125 1.882812 3.882812 0.472656 4.34375 -0.890625 C 4.800781 -2.265625 5.617188 -3.5 6.796875 -4.59375 C 8.171875 -5.863281 9.597656 -6.664062 11.078125 -7 C 12.566406 -7.34375 13.984375 -7.304688 15.328125 -6.890625 C 16.679688 -6.484375 17.828125 -5.773438 18.765625 -4.765625 C 19.484375 -3.984375 20 -3.09375 20.3125 -2.09375 C 20.632812 -1.101562 20.765625 -0.0859375 20.703125 0.953125 C 20.648438 2.003906 20.398438 3.023438 19.953125 4.015625 C 19.515625 5.003906 18.882812 5.878906 18.0625 6.640625 C 17.6875 6.972656 17.253906 7.101562 16.765625 7.03125 C 16.285156 6.96875 15.875 6.753906 15.53125 6.390625 L 7.4375 -2.34375 L 9.09375 -5.140625 L 16.859375 3.25 L 15.9375 3.171875 L 16.5625 2.59375 C 16.976562 2.15625 17.226562 1.628906 17.3125 1.015625 C 17.394531 0.410156 17.347656 -0.191406 17.171875 -0.796875 C 16.992188 -1.410156 16.6875 -1.953125 16.25 -2.421875 C 15.820312 -2.878906 15.363281 -3.25 14.875 -3.53125 C 14.382812 -3.8125 13.859375 -3.960938 13.296875 -3.984375 C 12.734375 -4.015625 12.128906 -3.882812 11.484375 -3.59375 C 10.847656 -3.3125 10.15625 -2.828125 9.40625 -2.140625 C 8.582031 -1.367188 8.039062 -0.546875 7.78125 0.328125 C 7.53125 1.203125 7.507812 2.046875 7.71875 2.859375 C 7.9375 3.671875 8.328125 4.378906 8.890625 4.984375 C 9.410156 5.554688 9.867188 5.96875 10.265625 6.21875 C 10.671875 6.46875 11.03125 6.632812 11.34375 6.71875 C 11.664062 6.800781 11.945312 6.882812 12.1875 6.96875 C 12.59375 7.125 12.90625 7.320312 13.125 7.5625 C 13.4375 7.894531 13.582031 8.273438 13.5625 8.703125 C 13.539062 9.140625 13.378906 9.5 13.078125 9.78125 C 12.660156 10.164062 12.085938 10.300781 11.359375 10.1875 C 10.648438 10.101562 9.835938 9.820312 8.921875 9.34375 C 8.003906 8.863281 7.191406 8.238281 6.484375 7.46875 Z M 6.484375 7.46875 "/></g></g></g><g fill="#1437d9" fill-opacity="1"><g transform="translate(283.719783, 423.926978)"><g><path d="M 2.9375 2.578125 C 2.53125 2.222656 2.3125 1.789062 2.28125 1.28125 C 2.257812 0.769531 2.429688 0.3125 2.796875 -0.09375 L 11.296875 -9.75 C 11.660156 -10.15625 12.09375 -10.378906 12.59375 -10.421875 C 13.101562 -10.460938 13.5625 -10.304688 13.96875 -9.953125 C 14.363281 -9.597656 14.570312 -9.164062 14.59375 -8.65625 C 14.625 -8.144531 14.457031 -7.6875 14.09375 -7.28125 L 12.15625 -5.078125 L 13.359375 -6.78125 C 13.867188 -7.007812 14.382812 -7.148438 14.90625 -7.203125 C 15.4375 -7.253906 15.960938 -7.222656 16.484375 -7.109375 C 17.003906 -7.003906 17.5 -6.828125 17.96875 -6.578125 C 18.445312 -6.328125 18.878906 -6.03125 19.265625 -5.6875 C 19.734375 -5.28125 20.007812 -4.800781 20.09375 -4.25 C 20.175781 -3.695312 20.0625 -3.242188 19.75 -2.890625 C 19.289062 -2.367188 18.828125 -2.113281 18.359375 -2.125 C 17.898438 -2.132812 17.519531 -2.273438 17.21875 -2.546875 C 16.914062 -2.804688 16.691406 -3.097656 16.546875 -3.421875 C 16.398438 -3.742188 16.171875 -4.039062 15.859375 -4.3125 C 15.578125 -4.5625 15.234375 -4.742188 14.828125 -4.859375 C 14.421875 -4.984375 13.96875 -5.007812 13.46875 -4.9375 C 12.976562 -4.875 12.476562 -4.703125 11.96875 -4.421875 C 11.46875 -4.148438 10.96875 -3.734375 10.46875 -3.171875 L 5.59375 2.375 C 5.226562 2.78125 4.789062 3.003906 4.28125 3.046875 C 3.78125 3.085938 3.332031 2.929688 2.9375 2.578125 Z M 2.9375 2.578125 "/></g></g></g><g fill="#1437d9" fill-opacity="1"><g transform="translate(297.210228, 435.679483)"><g><path d="M 18.796875 -7.46875 C 20.035156 -6.570312 20.789062 -5.628906 21.0625 -4.640625 C 21.34375 -3.660156 21.296875 -2.644531 20.921875 -1.59375 C 20.546875 -0.539062 19.984375 0.515625 19.234375 1.578125 L 14.59375 8.078125 C 14.28125 8.515625 13.867188 8.773438 13.359375 8.859375 C 12.859375 8.953125 12.390625 8.84375 11.953125 8.53125 C 11.515625 8.21875 11.253906 7.804688 11.171875 7.296875 C 11.097656 6.796875 11.21875 6.328125 11.53125 5.890625 L 16.171875 -0.609375 C 16.566406 -1.171875 16.851562 -1.722656 17.03125 -2.265625 C 17.207031 -2.804688 17.207031 -3.34375 17.03125 -3.875 C 16.851562 -4.414062 16.414062 -4.929688 15.71875 -5.421875 C 15.039062 -5.910156 14.375 -6.1875 13.71875 -6.25 C 13.0625 -6.3125 12.445312 -6.207031 11.875 -5.9375 C 11.3125 -5.675781 10.832031 -5.265625 10.4375 -4.703125 L 5.796875 1.796875 C 5.484375 2.234375 5.078125 2.5 4.578125 2.59375 C 4.078125 2.6875 3.609375 2.578125 3.171875 2.265625 C 2.734375 1.953125 2.476562 1.546875 2.40625 1.046875 C 2.332031 0.546875 2.453125 0.078125 2.765625 -0.359375 L 10.25 -10.84375 C 10.5625 -11.28125 10.96875 -11.546875 11.46875 -11.640625 C 11.96875 -11.734375 12.4375 -11.625 12.875 -11.3125 C 13.3125 -11 13.566406 -10.59375 13.640625 -10.09375 C 13.710938 -9.59375 13.59375 -9.125 13.28125 -8.6875 L 12.5 -7.59375 L 12.171875 -7.9375 C 12.535156 -8.113281 12.976562 -8.265625 13.5 -8.390625 C 14.019531 -8.515625 14.578125 -8.582031 15.171875 -8.59375 C 15.773438 -8.601562 16.382812 -8.519531 17 -8.34375 C 17.613281 -8.164062 18.210938 -7.875 18.796875 -7.46875 Z M 18.796875 -7.46875 "/></g></g></g><g fill="#1437d9" fill-opacity="1"><g transform="translate(316.157469, 448.916506)"><g><path d="M 21.9375 -7.359375 C 22.414062 -7.097656 22.722656 -6.722656 22.859375 -6.234375 C 22.992188 -5.753906 22.925781 -5.269531 22.65625 -4.78125 L 16.3125 6.78125 C 16.050781 7.257812 15.675781 7.570312 15.1875 7.71875 C 14.707031 7.863281 14.226562 7.804688 13.75 7.546875 C 13.269531 7.285156 12.960938 6.910156 12.828125 6.421875 C 12.703125 5.929688 12.769531 5.445312 13.03125 4.96875 L 13.765625 3.625 L 14.21875 4.21875 C 14.09375 4.457031 13.804688 4.675781 13.359375 4.875 C 12.921875 5.070312 12.390625 5.210938 11.765625 5.296875 C 11.148438 5.378906 10.484375 5.375 9.765625 5.28125 C 9.054688 5.1875 8.359375 4.953125 7.671875 4.578125 C 6.410156 3.878906 5.445312 2.925781 4.78125 1.71875 C 4.125 0.507812 3.8125 -0.820312 3.84375 -2.28125 C 3.875 -3.738281 4.296875 -5.207031 5.109375 -6.6875 C 5.921875 -8.1875 6.9375 -9.34375 8.15625 -10.15625 C 9.375 -10.96875 10.660156 -11.425781 12.015625 -11.53125 C 13.378906 -11.632812 14.671875 -11.347656 15.890625 -10.671875 C 16.679688 -10.242188 17.335938 -9.726562 17.859375 -9.125 C 18.378906 -8.53125 18.78125 -7.914062 19.0625 -7.28125 C 19.34375 -6.65625 19.515625 -6.082031 19.578125 -5.5625 C 19.640625 -5.039062 19.597656 -4.65625 19.453125 -4.40625 L 18.28125 -4.59375 L 19.375 -6.59375 C 19.632812 -7.0625 20.003906 -7.367188 20.484375 -7.515625 C 20.972656 -7.671875 21.457031 -7.617188 21.9375 -7.359375 Z M 9.734375 1.78125 C 10.535156 2.226562 11.34375 2.414062 12.15625 2.34375 C 12.976562 2.269531 13.75 1.976562 14.46875 1.46875 C 15.1875 0.957031 15.785156 0.273438 16.265625 -0.578125 C 16.742188 -1.453125 17 -2.328125 17.03125 -3.203125 C 17.070312 -4.078125 16.90625 -4.878906 16.53125 -5.609375 C 16.15625 -6.335938 15.566406 -6.925781 14.765625 -7.375 C 13.972656 -7.800781 13.164062 -7.976562 12.34375 -7.90625 C 11.519531 -7.84375 10.75 -7.554688 10.03125 -7.046875 C 9.320312 -6.535156 8.726562 -5.84375 8.25 -4.96875 C 7.769531 -4.113281 7.507812 -3.25 7.46875 -2.375 C 7.425781 -1.5 7.59375 -0.695312 7.96875 0.03125 C 8.351562 0.769531 8.941406 1.351562 9.734375 1.78125 Z M 9.734375 1.78125 "/></g></g></g><g fill="#1437d9" fill-opacity="1"><g transform="translate(337.326739, 460.086082)"><g><path d="M 8.421875 -14.21875 L 15.234375 -11.34375 C 15.691406 -11.144531 16.007812 -10.828125 16.1875 -10.390625 C 16.363281 -9.953125 16.351562 -9.503906 16.15625 -9.046875 C 15.96875 -8.609375 15.65625 -8.304688 15.21875 -8.140625 C 14.789062 -7.972656 14.347656 -7.988281 13.890625 -8.1875 L 7.078125 -11.0625 C 6.617188 -11.25 6.300781 -11.5625 6.125 -12 C 5.945312 -12.4375 5.957031 -12.882812 6.15625 -13.34375 C 6.34375 -13.78125 6.648438 -14.082031 7.078125 -14.25 C 7.515625 -14.414062 7.960938 -14.40625 8.421875 -14.21875 Z M 13 -16.515625 C 13.5 -16.304688 13.835938 -15.96875 14.015625 -15.5 C 14.191406 -15.03125 14.175781 -14.546875 13.96875 -14.046875 L 8.5625 -1.25 C 8.445312 -0.988281 8.40625 -0.75 8.4375 -0.53125 C 8.46875 -0.3125 8.554688 -0.128906 8.703125 0.015625 C 8.859375 0.160156 9.039062 0.28125 9.25 0.375 C 9.476562 0.46875 9.707031 0.515625 9.9375 0.515625 C 10.164062 0.515625 10.40625 0.566406 10.65625 0.671875 C 10.925781 0.785156 11.117188 1.015625 11.234375 1.359375 C 11.347656 1.703125 11.3125 2.09375 11.125 2.53125 C 10.894531 3.070312 10.414062 3.390625 9.6875 3.484375 C 8.957031 3.578125 8.253906 3.484375 7.578125 3.203125 C 7.179688 3.035156 6.75 2.8125 6.28125 2.53125 C 5.820312 2.257812 5.429688 1.898438 5.109375 1.453125 C 4.785156 1.015625 4.597656 0.46875 4.546875 -0.1875 C 4.492188 -0.84375 4.664062 -1.632812 5.0625 -2.5625 L 10.53125 -15.5 C 10.738281 -16 11.078125 -16.34375 11.546875 -16.53125 C 12.015625 -16.726562 12.5 -16.722656 13 -16.515625 Z M 13 -16.515625 "/></g></g></g><g fill="#1437d9" fill-opacity="1"><g transform="translate(352.861913, 466.392383)"><g><path d="M 5.859375 0 C 5.691406 0.507812 5.378906 0.878906 4.921875 1.109375 C 4.472656 1.335938 3.992188 1.363281 3.484375 1.1875 C 2.972656 1.019531 2.609375 0.707031 2.390625 0.25 C 2.179688 -0.207031 2.160156 -0.691406 2.328125 -1.203125 L 6.5 -13.390625 C 6.675781 -13.898438 6.988281 -14.269531 7.4375 -14.5 C 7.882812 -14.738281 8.363281 -14.773438 8.875 -14.609375 C 9.382812 -14.429688 9.75 -14.109375 9.96875 -13.640625 C 10.1875 -13.179688 10.207031 -12.695312 10.03125 -12.1875 Z M 9.5 -16.53125 C 8.832031 -16.757812 8.398438 -17.023438 8.203125 -17.328125 C 8.003906 -17.640625 7.992188 -18.066406 8.171875 -18.609375 L 8.375 -19.171875 C 8.570312 -19.742188 8.859375 -20.082031 9.234375 -20.1875 C 9.609375 -20.289062 10.109375 -20.238281 10.734375 -20.03125 C 11.421875 -19.789062 11.863281 -19.515625 12.0625 -19.203125 C 12.269531 -18.890625 12.28125 -18.457031 12.09375 -17.90625 L 11.890625 -17.34375 C 11.703125 -16.78125 11.421875 -16.445312 11.046875 -16.34375 C 10.679688 -16.25 10.164062 -16.3125 9.5 -16.53125 Z M 9.5 -16.53125 "/></g></g></g><g fill="#1437d9" fill-opacity="1"><g transform="translate(363.787239, 470.212394)"><g><path d="M 19.671875 -3.734375 C 19.265625 -2.066406 18.535156 -0.695312 17.484375 0.375 C 16.441406 1.445312 15.210938 2.179688 13.796875 2.578125 C 12.378906 2.984375 10.90625 3 9.375 2.625 C 7.832031 2.25 6.53125 1.550781 5.46875 0.53125 C 4.40625 -0.476562 3.660156 -1.703125 3.234375 -3.140625 C 2.804688 -4.578125 2.796875 -6.128906 3.203125 -7.796875 C 3.617188 -9.453125 4.347656 -10.816406 5.390625 -11.890625 C 6.429688 -12.972656 7.660156 -13.71875 9.078125 -14.125 C 10.492188 -14.53125 11.972656 -14.546875 13.515625 -14.171875 C 15.046875 -13.796875 16.34375 -13.097656 17.40625 -12.078125 C 18.46875 -11.054688 19.210938 -9.820312 19.640625 -8.375 C 20.078125 -6.9375 20.085938 -5.390625 19.671875 -3.734375 Z M 16.03125 -4.640625 C 16.289062 -5.671875 16.304688 -6.609375 16.078125 -7.453125 C 15.847656 -8.304688 15.4375 -9.03125 14.84375 -9.625 C 14.257812 -10.226562 13.539062 -10.632812 12.6875 -10.84375 C 11.832031 -11.050781 11.003906 -11.023438 10.203125 -10.765625 C 9.398438 -10.515625 8.703125 -10.066406 8.109375 -9.421875 C 7.515625 -8.773438 7.085938 -7.9375 6.828125 -6.90625 C 6.578125 -5.882812 6.566406 -4.941406 6.796875 -4.078125 C 7.023438 -3.222656 7.4375 -2.5 8.03125 -1.90625 C 8.625 -1.3125 9.347656 -0.910156 10.203125 -0.703125 C 11.054688 -0.492188 11.878906 -0.515625 12.671875 -0.765625 C 13.472656 -1.015625 14.171875 -1.46875 14.765625 -2.125 C 15.359375 -2.78125 15.78125 -3.617188 16.03125 -4.640625 Z M 16.03125 -4.640625 "/></g></g></g><g fill="#1437d9" fill-opacity="1"><g transform="translate(387.139781, 475.660676)"><g><path d="M 12.96875 -15.515625 C 14.488281 -15.328125 15.601562 -14.863281 16.3125 -14.125 C 17.03125 -13.382812 17.472656 -12.460938 17.640625 -11.359375 C 17.816406 -10.253906 17.820312 -9.054688 17.65625 -7.765625 L 16.671875 0.15625 C 16.609375 0.695312 16.375 1.125 15.96875 1.4375 C 15.570312 1.757812 15.109375 1.882812 14.578125 1.8125 C 14.035156 1.75 13.613281 1.515625 13.3125 1.109375 C 13.007812 0.703125 12.890625 0.226562 12.953125 -0.3125 L 13.9375 -8.234375 C 14.019531 -8.921875 14.003906 -9.546875 13.890625 -10.109375 C 13.785156 -10.671875 13.53125 -11.144531 13.125 -11.53125 C 12.71875 -11.914062 12.085938 -12.160156 11.234375 -12.265625 C 10.410156 -12.367188 9.691406 -12.289062 9.078125 -12.03125 C 8.472656 -11.769531 7.984375 -11.382812 7.609375 -10.875 C 7.242188 -10.375 7.019531 -9.78125 6.9375 -9.09375 L 5.953125 -1.171875 C 5.890625 -0.628906 5.660156 -0.203125 5.265625 0.109375 C 4.867188 0.421875 4.40625 0.546875 3.875 0.484375 C 3.332031 0.410156 2.910156 0.175781 2.609375 -0.21875 C 2.304688 -0.625 2.1875 -1.097656 2.25 -1.640625 L 3.84375 -14.421875 C 3.90625 -14.953125 4.132812 -15.378906 4.53125 -15.703125 C 4.925781 -16.023438 5.394531 -16.148438 5.9375 -16.078125 C 6.46875 -16.015625 6.882812 -15.773438 7.1875 -15.359375 C 7.488281 -14.953125 7.609375 -14.484375 7.546875 -13.953125 L 7.375 -12.609375 L 6.921875 -12.765625 C 7.148438 -13.097656 7.46875 -13.445312 7.875 -13.8125 C 8.28125 -14.175781 8.738281 -14.5 9.25 -14.78125 C 9.769531 -15.070312 10.34375 -15.289062 10.96875 -15.4375 C 11.59375 -15.582031 12.257812 -15.609375 12.96875 -15.515625 Z M 12.96875 -15.515625 "/></g></g></g><g fill="#1437d9" fill-opacity="1"><g transform="translate(410.103883, 478.279295)"><g><path d="M 15.78125 -16.90625 C 16.320312 -16.90625 16.769531 -16.722656 17.125 -16.359375 C 17.476562 -16.003906 17.65625 -15.546875 17.65625 -14.984375 L 17.578125 -1.796875 C 17.566406 -1.253906 17.382812 -0.800781 17.03125 -0.4375 C 16.675781 -0.0820312 16.226562 0.09375 15.6875 0.09375 C 15.144531 0.09375 14.695312 -0.0859375 14.34375 -0.453125 C 13.988281 -0.828125 13.816406 -1.285156 13.828125 -1.828125 L 13.828125 -3.359375 L 14.515625 -3.078125 C 14.515625 -2.804688 14.367188 -2.476562 14.078125 -2.09375 C 13.785156 -1.707031 13.382812 -1.328125 12.875 -0.953125 C 12.375 -0.578125 11.785156 -0.257812 11.109375 0 C 10.441406 0.25 9.710938 0.367188 8.921875 0.359375 C 7.484375 0.359375 6.1875 -0.015625 5.03125 -0.765625 C 3.875 -1.515625 2.957031 -2.539062 2.28125 -3.84375 C 1.613281 -5.144531 1.285156 -6.640625 1.296875 -8.328125 C 1.304688 -10.035156 1.65625 -11.535156 2.34375 -12.828125 C 3.03125 -14.117188 3.941406 -15.128906 5.078125 -15.859375 C 6.222656 -16.585938 7.492188 -16.953125 8.890625 -16.953125 C 9.785156 -16.941406 10.601562 -16.796875 11.34375 -16.515625 C 12.09375 -16.242188 12.742188 -15.898438 13.296875 -15.484375 C 13.847656 -15.066406 14.269531 -14.640625 14.5625 -14.203125 C 14.863281 -13.773438 15.015625 -13.414062 15.015625 -13.125 L 13.890625 -12.734375 L 13.90625 -15.015625 C 13.90625 -15.554688 14.082031 -16.003906 14.4375 -16.359375 C 14.789062 -16.722656 15.238281 -16.90625 15.78125 -16.90625 Z M 9.40625 -3.0625 C 10.320312 -3.0625 11.125 -3.285156 11.8125 -3.734375 C 12.5 -4.179688 13.035156 -4.800781 13.421875 -5.59375 C 13.816406 -6.382812 14.015625 -7.269531 14.015625 -8.25 C 14.023438 -9.25 13.835938 -10.140625 13.453125 -10.921875 C 13.078125 -11.710938 12.546875 -12.335938 11.859375 -12.796875 C 11.179688 -13.265625 10.382812 -13.5 9.46875 -13.5 C 8.570312 -13.507812 7.78125 -13.285156 7.09375 -12.828125 C 6.40625 -12.378906 5.863281 -11.757812 5.46875 -10.96875 C 5.082031 -10.1875 4.882812 -9.296875 4.875 -8.296875 C 4.875 -7.316406 5.0625 -6.429688 5.4375 -5.640625 C 5.820312 -4.847656 6.351562 -4.222656 7.03125 -3.765625 C 7.71875 -3.304688 8.507812 -3.070312 9.40625 -3.0625 Z M 9.40625 -3.0625 "/></g></g></g><g fill="#1437d9" fill-opacity="1"><g transform="translate(433.9127, 477.973874)"><g><path d="M 5.90625 -2.421875 C 5.945312 -1.878906 5.800781 -1.410156 5.46875 -1.015625 C 5.132812 -0.617188 4.695312 -0.398438 4.15625 -0.359375 C 3.644531 -0.316406 3.195312 -0.460938 2.8125 -0.796875 C 2.425781 -1.128906 2.210938 -1.566406 2.171875 -2.109375 L 0.53125 -21.296875 C 0.476562 -21.835938 0.617188 -22.304688 0.953125 -22.703125 C 1.285156 -23.097656 1.71875 -23.316406 2.25 -23.359375 C 2.789062 -23.398438 3.25 -23.253906 3.625 -22.921875 C 4 -22.585938 4.210938 -22.148438 4.265625 -21.609375 Z M 5.90625 -2.421875 "/></g></g></g><g fill="#1437d9" fill-opacity="1"><g transform="translate(446.209085, 476.805416)"><g/></g></g><g fill="#1437d9" fill-opacity="1"><g transform="translate(458.916429, 474.876116)"><g><path d="M 0.453125 -2.765625 C 0.179688 -3.003906 0.0078125 -3.347656 -0.0625 -3.796875 C -0.144531 -4.242188 0.0195312 -4.6875 0.4375 -5.125 C 0.726562 -5.394531 1.054688 -5.554688 1.421875 -5.609375 C 1.796875 -5.671875 2.195312 -5.566406 2.625 -5.296875 C 3.332031 -4.859375 4.046875 -4.550781 4.765625 -4.375 C 5.492188 -4.207031 6.347656 -4.238281 7.328125 -4.46875 C 7.628906 -4.550781 7.953125 -4.671875 8.296875 -4.828125 C 8.648438 -4.984375 8.929688 -5.21875 9.140625 -5.53125 C 9.359375 -5.851562 9.410156 -6.273438 9.296875 -6.796875 C 9.191406 -7.234375 8.953125 -7.546875 8.578125 -7.734375 C 8.210938 -7.929688 7.757812 -8.0625 7.21875 -8.125 C 6.6875 -8.195312 6.09375 -8.25 5.4375 -8.28125 C 4.769531 -8.3125 4.078125 -8.359375 3.359375 -8.421875 C 2.648438 -8.492188 1.984375 -8.644531 1.359375 -8.875 C 0.742188 -9.101562 0.195312 -9.472656 -0.28125 -9.984375 C -0.769531 -10.492188 -1.113281 -11.191406 -1.3125 -12.078125 C -1.550781 -13.097656 -1.46875 -14.023438 -1.0625 -14.859375 C -0.65625 -15.703125 -0.0507812 -16.421875 0.75 -17.015625 C 1.5625 -17.609375 2.46875 -18.019531 3.46875 -18.25 C 4.09375 -18.394531 4.765625 -18.472656 5.484375 -18.484375 C 6.210938 -18.492188 6.925781 -18.398438 7.625 -18.203125 C 8.320312 -18.003906 8.945312 -17.6875 9.5 -17.25 C 9.800781 -17 10.019531 -16.664062 10.15625 -16.25 C 10.300781 -15.832031 10.203125 -15.398438 9.859375 -14.953125 C 9.597656 -14.628906 9.265625 -14.4375 8.859375 -14.375 C 8.453125 -14.320312 8.085938 -14.382812 7.765625 -14.5625 C 7.316406 -14.925781 6.773438 -15.171875 6.140625 -15.296875 C 5.503906 -15.429688 4.8125 -15.414062 4.0625 -15.25 C 3.757812 -15.175781 3.4375 -15.0625 3.09375 -14.90625 C 2.75 -14.75 2.472656 -14.523438 2.265625 -14.234375 C 2.054688 -13.941406 2.015625 -13.539062 2.140625 -13.03125 C 2.242188 -12.570312 2.476562 -12.238281 2.84375 -12.03125 C 3.207031 -11.832031 3.671875 -11.707031 4.234375 -11.65625 C 4.796875 -11.601562 5.382812 -11.566406 6 -11.546875 C 6.65625 -11.523438 7.320312 -11.472656 8 -11.390625 C 8.675781 -11.316406 9.316406 -11.15625 9.921875 -10.90625 C 10.535156 -10.664062 11.070312 -10.289062 11.53125 -9.78125 C 11.988281 -9.28125 12.320312 -8.582031 12.53125 -7.6875 C 12.757812 -6.664062 12.65625 -5.71875 12.21875 -4.84375 C 11.78125 -3.976562 11.148438 -3.253906 10.328125 -2.671875 C 9.515625 -2.085938 8.628906 -1.6875 7.671875 -1.46875 C 6.472656 -1.1875 5.226562 -1.113281 3.9375 -1.25 C 2.644531 -1.382812 1.484375 -1.890625 0.453125 -2.765625 Z M 0.453125 -2.765625 "/></g></g></g><g fill="#1437d9" fill-opacity="1"><g transform="translate(477.62254, 470.295873)"><g><path d="M -3.015625 -16.234375 L 4 -18.546875 C 4.476562 -18.703125 4.925781 -18.675781 5.34375 -18.46875 C 5.769531 -18.257812 6.0625 -17.914062 6.21875 -17.4375 C 6.375 -16.976562 6.34375 -16.539062 6.125 -16.125 C 5.90625 -15.71875 5.554688 -15.4375 5.078125 -15.28125 L -1.9375 -12.96875 C -2.414062 -12.8125 -2.863281 -12.835938 -3.28125 -13.046875 C -3.707031 -13.265625 -4 -13.613281 -4.15625 -14.09375 C -4.300781 -14.550781 -4.265625 -14.984375 -4.046875 -15.390625 C -3.835938 -15.796875 -3.492188 -16.078125 -3.015625 -16.234375 Z M -1.078125 -20.984375 C -0.554688 -21.148438 -0.078125 -21.113281 0.359375 -20.875 C 0.796875 -20.644531 1.097656 -20.273438 1.265625 -19.765625 L 5.609375 -6.578125 C 5.703125 -6.296875 5.832031 -6.085938 6 -5.953125 C 6.164062 -5.816406 6.351562 -5.738281 6.5625 -5.71875 C 6.78125 -5.707031 7 -5.738281 7.21875 -5.8125 C 7.457031 -5.882812 7.660156 -6 7.828125 -6.15625 C 7.992188 -6.3125 8.207031 -6.429688 8.46875 -6.515625 C 8.738281 -6.597656 9.03125 -6.546875 9.34375 -6.359375 C 9.664062 -6.179688 9.898438 -5.867188 10.046875 -5.421875 C 10.222656 -4.859375 10.066406 -4.300781 9.578125 -3.75 C 9.097656 -3.195312 8.515625 -2.804688 7.828125 -2.578125 C 7.410156 -2.441406 6.9375 -2.320312 6.40625 -2.21875 C 5.882812 -2.125 5.351562 -2.140625 4.8125 -2.265625 C 4.28125 -2.390625 3.773438 -2.675781 3.296875 -3.125 C 2.828125 -3.582031 2.429688 -4.289062 2.109375 -5.25 L -2.28125 -18.59375 C -2.445312 -19.101562 -2.414062 -19.585938 -2.1875 -20.046875 C -1.957031 -20.503906 -1.585938 -20.816406 -1.078125 -20.984375 Z M -1.078125 -20.984375 "/></g></g></g><g fill="#1437d9" fill-opacity="1"><g transform="translate(493.86982, 464.894618)"><g><path d="M 7.375 -21.921875 C 7.875 -22.140625 8.359375 -22.160156 8.828125 -21.984375 C 9.296875 -21.804688 9.644531 -21.460938 9.875 -20.953125 L 15.25 -8.90625 C 15.46875 -8.414062 15.488281 -7.929688 15.3125 -7.453125 C 15.144531 -6.972656 14.8125 -6.625 14.3125 -6.40625 C 13.820312 -6.1875 13.335938 -6.171875 12.859375 -6.359375 C 12.390625 -6.546875 12.046875 -6.882812 11.828125 -7.375 L 11.203125 -8.78125 L 11.953125 -8.796875 C 12.054688 -8.554688 12.050781 -8.195312 11.9375 -7.71875 C 11.832031 -7.25 11.628906 -6.738281 11.328125 -6.1875 C 11.023438 -5.644531 10.617188 -5.117188 10.109375 -4.609375 C 9.609375 -4.097656 8.992188 -3.679688 8.265625 -3.359375 C 6.953125 -2.773438 5.613281 -2.582031 4.25 -2.78125 C 2.894531 -2.976562 1.644531 -3.53125 0.5 -4.4375 C -0.644531 -5.351562 -1.566406 -6.582031 -2.265625 -8.125 C -2.960938 -9.675781 -3.265625 -11.179688 -3.171875 -12.640625 C -3.078125 -14.109375 -2.660156 -15.410156 -1.921875 -16.546875 C -1.179688 -17.679688 -0.175781 -18.535156 1.09375 -19.109375 C 1.90625 -19.472656 2.707031 -19.679688 3.5 -19.734375 C 4.289062 -19.796875 5.023438 -19.75 5.703125 -19.59375 C 6.378906 -19.445312 6.941406 -19.238281 7.390625 -18.96875 C 7.835938 -18.695312 8.125 -18.425781 8.25 -18.15625 L 7.375 -17.34375 L 6.453125 -19.421875 C 6.222656 -19.910156 6.195312 -20.394531 6.375 -20.875 C 6.550781 -21.351562 6.882812 -21.703125 7.375 -21.921875 Z M 7.296875 -6.6875 C 8.128906 -7.0625 8.765625 -7.59375 9.203125 -8.28125 C 9.648438 -8.976562 9.882812 -9.765625 9.90625 -10.640625 C 9.9375 -11.523438 9.75 -12.414062 9.34375 -13.3125 C 8.9375 -14.21875 8.398438 -14.953125 7.734375 -15.515625 C 7.066406 -16.078125 6.328125 -16.425781 5.515625 -16.5625 C 4.703125 -16.695312 3.878906 -16.578125 3.046875 -16.203125 C 2.222656 -15.835938 1.59375 -15.304688 1.15625 -14.609375 C 0.71875 -13.910156 0.476562 -13.125 0.4375 -12.25 C 0.40625 -11.375 0.59375 -10.484375 1 -9.578125 C 1.40625 -8.679688 1.945312 -7.945312 2.625 -7.375 C 3.300781 -6.8125 4.039062 -6.460938 4.84375 -6.328125 C 5.65625 -6.203125 6.472656 -6.320312 7.296875 -6.6875 Z M 7.296875 -6.6875 "/></g></g></g><g fill="#1437d9" fill-opacity="1"><g transform="translate(515.754213, 454.78226)"><g><path d="M 0.6875 -20.203125 C 2 -20.992188 3.164062 -21.316406 4.1875 -21.171875 C 5.207031 -21.035156 6.117188 -20.582031 6.921875 -19.8125 C 7.734375 -19.050781 8.472656 -18.109375 9.140625 -16.984375 L 13.234375 -10.140625 C 13.515625 -9.671875 13.597656 -9.1875 13.484375 -8.6875 C 13.367188 -8.195312 13.078125 -7.8125 12.609375 -7.53125 C 12.140625 -7.25 11.660156 -7.175781 11.171875 -7.3125 C 10.679688 -7.445312 10.296875 -7.75 10.015625 -8.21875 L 5.921875 -15.0625 C 5.578125 -15.65625 5.1875 -16.140625 4.75 -16.515625 C 4.320312 -16.890625 3.828125 -17.101562 3.265625 -17.15625 C 2.703125 -17.207031 2.054688 -17.015625 1.328125 -16.578125 C 0.609375 -16.148438 0.09375 -15.644531 -0.21875 -15.0625 C -0.539062 -14.488281 -0.691406 -13.890625 -0.671875 -13.265625 C -0.648438 -12.640625 -0.46875 -12.03125 -0.125 -11.4375 L 3.96875 -4.59375 C 4.25 -4.125 4.328125 -3.640625 4.203125 -3.140625 C 4.085938 -2.648438 3.804688 -2.269531 3.359375 -2 C 2.890625 -1.726562 2.410156 -1.65625 1.921875 -1.78125 C 1.429688 -1.914062 1.046875 -2.21875 0.765625 -2.6875 L -5.828125 -13.734375 C -6.109375 -14.203125 -6.191406 -14.679688 -6.078125 -15.171875 C -5.960938 -15.671875 -5.671875 -16.054688 -5.203125 -16.328125 C -4.753906 -16.597656 -4.28125 -16.664062 -3.78125 -16.53125 C -3.289062 -16.40625 -2.90625 -16.109375 -2.625 -15.640625 L -1.9375 -14.484375 L -2.390625 -14.328125 C -2.421875 -14.734375 -2.382812 -15.203125 -2.28125 -15.734375 C -2.1875 -16.265625 -2.019531 -16.800781 -1.78125 -17.34375 C -1.550781 -17.894531 -1.234375 -18.421875 -0.828125 -18.921875 C -0.429688 -19.421875 0.0703125 -19.847656 0.6875 -20.203125 Z M 0.6875 -20.203125 "/></g></g></g><g fill="#1437d9" fill-opacity="1"><g transform="translate(535.473349, 442.725241)"><g><path d="M -1.65625 -27.859375 C -1.21875 -28.179688 -0.753906 -28.3125 -0.265625 -28.25 C 0.222656 -28.1875 0.640625 -27.929688 0.984375 -27.484375 L 12.75 -12.234375 C 13.070312 -11.796875 13.207031 -11.320312 13.15625 -10.8125 C 13.101562 -10.3125 12.859375 -9.898438 12.421875 -9.578125 C 11.992188 -9.242188 11.523438 -9.109375 11.015625 -9.171875 C 10.515625 -9.242188 10.101562 -9.5 9.78125 -9.9375 L 8.84375 -11.140625 L 9.5625 -11.34375 C 9.726562 -11.125 9.8125 -10.773438 9.8125 -10.296875 C 9.820312 -9.816406 9.742188 -9.273438 9.578125 -8.671875 C 9.410156 -8.078125 9.140625 -7.46875 8.765625 -6.84375 C 8.390625 -6.226562 7.882812 -5.675781 7.25 -5.1875 C 6.113281 -4.3125 4.859375 -3.8125 3.484375 -3.6875 C 2.117188 -3.570312 0.773438 -3.820312 -0.546875 -4.4375 C -1.878906 -5.050781 -3.0625 -6.023438 -4.09375 -7.359375 C -5.132812 -8.710938 -5.78125 -10.109375 -6.03125 -11.546875 C -6.289062 -12.984375 -6.191406 -14.34375 -5.734375 -15.625 C -5.285156 -16.914062 -4.507812 -17.988281 -3.40625 -18.84375 C -2.695312 -19.382812 -1.960938 -19.773438 -1.203125 -20.015625 C -0.453125 -20.253906 0.265625 -20.375 0.953125 -20.375 C 1.648438 -20.382812 2.25 -20.3125 2.75 -20.15625 C 3.25 -20 3.585938 -19.804688 3.765625 -19.578125 L 3.125 -18.578125 L -1.984375 -25.1875 C -2.316406 -25.625 -2.453125 -26.09375 -2.390625 -26.59375 C -2.328125 -27.101562 -2.082031 -27.523438 -1.65625 -27.859375 Z M 5.53125 -8.203125 C 6.257812 -8.753906 6.753906 -9.414062 7.015625 -10.1875 C 7.285156 -10.96875 7.328125 -11.789062 7.140625 -12.65625 C 6.960938 -13.53125 6.578125 -14.351562 5.984375 -15.125 C 5.367188 -15.914062 4.671875 -16.503906 3.890625 -16.890625 C 3.109375 -17.273438 2.304688 -17.441406 1.484375 -17.390625 C 0.660156 -17.335938 -0.113281 -17.035156 -0.84375 -16.484375 C -1.550781 -15.929688 -2.035156 -15.265625 -2.296875 -14.484375 C -2.566406 -13.703125 -2.613281 -12.878906 -2.4375 -12.015625 C -2.257812 -11.160156 -1.863281 -10.335938 -1.25 -9.546875 C -0.65625 -8.773438 0.03125 -8.191406 0.8125 -7.796875 C 1.601562 -7.398438 2.410156 -7.226562 3.234375 -7.28125 C 4.054688 -7.34375 4.820312 -7.648438 5.53125 -8.203125 Z M 5.53125 -8.203125 "/></g></g></g><g fill="#1437d9" fill-opacity="1"><g transform="translate(554.426889, 427.778603)"><g><path d="M -0.734375 -23.125 C -0.347656 -23.5 0.09375 -23.679688 0.59375 -23.671875 C 1.09375 -23.671875 1.539062 -23.472656 1.9375 -23.078125 L 11.171875 -13.671875 C 11.554688 -13.285156 11.75 -12.835938 11.75 -12.328125 C 11.757812 -11.816406 11.570312 -11.375 11.1875 -11 C 10.800781 -10.613281 10.351562 -10.425781 9.84375 -10.4375 C 9.332031 -10.457031 8.882812 -10.660156 8.5 -11.046875 L 7.4375 -12.140625 L 8.125 -12.421875 C 8.320312 -12.234375 8.445312 -11.894531 8.5 -11.40625 C 8.5625 -10.925781 8.546875 -10.375 8.453125 -9.75 C 8.359375 -9.132812 8.160156 -8.5 7.859375 -7.84375 C 7.566406 -7.195312 7.140625 -6.59375 6.578125 -6.03125 C 5.554688 -5.03125 4.367188 -4.382812 3.015625 -4.09375 C 1.671875 -3.800781 0.304688 -3.878906 -1.078125 -4.328125 C -2.472656 -4.785156 -3.765625 -5.613281 -4.953125 -6.8125 C -6.148438 -8.03125 -6.957031 -9.335938 -7.375 -10.734375 C -7.800781 -12.140625 -7.867188 -13.503906 -7.578125 -14.828125 C -7.285156 -16.160156 -6.644531 -17.316406 -5.65625 -18.296875 C -5.007812 -18.921875 -4.320312 -19.394531 -3.59375 -19.71875 C -2.875 -20.050781 -2.171875 -20.265625 -1.484375 -20.359375 C -0.804688 -20.453125 -0.210938 -20.445312 0.296875 -20.34375 C 0.816406 -20.25 1.179688 -20.097656 1.390625 -19.890625 L 0.859375 -18.828125 L -0.734375 -20.453125 C -1.117188 -20.835938 -1.3125 -21.28125 -1.3125 -21.78125 C -1.3125 -22.289062 -1.117188 -22.738281 -0.734375 -23.125 Z M 4.515625 -8.8125 C 5.160156 -9.457031 5.566406 -10.179688 5.734375 -10.984375 C 5.910156 -11.785156 5.851562 -12.601562 5.5625 -13.4375 C 5.28125 -14.269531 4.796875 -15.035156 4.109375 -15.734375 C 3.410156 -16.453125 2.648438 -16.953125 1.828125 -17.234375 C 1.003906 -17.523438 0.1875 -17.59375 -0.625 -17.4375 C -1.4375 -17.289062 -2.164062 -16.894531 -2.8125 -16.25 C -3.457031 -15.625 -3.863281 -14.90625 -4.03125 -14.09375 C -4.195312 -13.289062 -4.140625 -12.472656 -3.859375 -11.640625 C -3.585938 -10.816406 -3.101562 -10.046875 -2.40625 -9.328125 C -1.71875 -8.628906 -0.957031 -8.132812 -0.125 -7.84375 C 0.707031 -7.550781 1.523438 -7.484375 2.328125 -7.640625 C 3.140625 -7.796875 3.867188 -8.1875 4.515625 -8.8125 Z M 4.515625 -8.8125 "/></g></g></g><g fill="#1437d9" fill-opacity="1"><g transform="translate(571.236962, 410.706756)"><g><path d="M 2.484375 -3.015625 C 2.140625 -2.597656 1.710938 -2.367188 1.203125 -2.328125 C 0.703125 -2.285156 0.242188 -2.4375 -0.171875 -2.78125 L -10.109375 -10.96875 C -10.523438 -11.3125 -10.757812 -11.734375 -10.8125 -12.234375 C -10.875 -12.742188 -10.734375 -13.207031 -10.390625 -13.625 C -10.054688 -14.03125 -9.632812 -14.253906 -9.125 -14.296875 C -8.613281 -14.347656 -8.148438 -14.203125 -7.734375 -13.859375 L -5.46875 -11.984375 L -7.21875 -13.140625 C -7.457031 -13.640625 -7.609375 -14.148438 -7.671875 -14.671875 C -7.742188 -15.203125 -7.734375 -15.726562 -7.640625 -16.25 C -7.554688 -16.769531 -7.394531 -17.269531 -7.15625 -17.75 C -6.925781 -18.226562 -6.644531 -18.671875 -6.3125 -19.078125 C -5.914062 -19.554688 -5.445312 -19.84375 -4.90625 -19.9375 C -4.363281 -20.039062 -3.910156 -19.9375 -3.546875 -19.625 C -3.015625 -19.1875 -2.742188 -18.738281 -2.734375 -18.28125 C -2.722656 -17.820312 -2.847656 -17.4375 -3.109375 -17.125 C -3.359375 -16.820312 -3.640625 -16.585938 -3.953125 -16.421875 C -4.273438 -16.265625 -4.570312 -16.023438 -4.84375 -15.703125 C -5.082031 -15.410156 -5.253906 -15.0625 -5.359375 -14.65625 C -5.460938 -14.25 -5.472656 -13.800781 -5.390625 -13.3125 C -5.304688 -12.820312 -5.113281 -12.328125 -4.8125 -11.828125 C -4.519531 -11.328125 -4.082031 -10.835938 -3.5 -10.359375 L 2.203125 -5.671875 C 2.617188 -5.328125 2.851562 -4.898438 2.90625 -4.390625 C 2.957031 -3.878906 2.816406 -3.421875 2.484375 -3.015625 Z M 2.484375 -3.015625 "/></g></g></g><g fill="#1437d9" fill-opacity="1"><g transform="translate(582.581778, 396.833032)"><g><path d="M -10.59375 -25.8125 C -10.289062 -26.269531 -9.894531 -26.546875 -9.40625 -26.640625 C -8.914062 -26.742188 -8.4375 -26.640625 -7.96875 -26.328125 L 8.09375 -15.6875 C 8.550781 -15.394531 8.832031 -15 8.9375 -14.5 C 9.050781 -14.007812 8.957031 -13.535156 8.65625 -13.078125 C 8.351562 -12.628906 7.953125 -12.359375 7.453125 -12.265625 C 6.960938 -12.171875 6.488281 -12.269531 6.03125 -12.5625 L 4.765625 -13.40625 L 5.375 -13.84375 C 5.59375 -13.6875 5.78125 -13.378906 5.9375 -12.921875 C 6.101562 -12.460938 6.203125 -11.921875 6.234375 -11.296875 C 6.273438 -10.679688 6.21875 -10.019531 6.0625 -9.3125 C 5.914062 -8.601562 5.625 -7.921875 5.1875 -7.265625 C 4.394531 -6.066406 3.367188 -5.1875 2.109375 -4.625 C 0.847656 -4.0625 -0.503906 -3.859375 -1.953125 -4.015625 C -3.410156 -4.171875 -4.84375 -4.710938 -6.25 -5.640625 C -7.675781 -6.585938 -8.742188 -7.695312 -9.453125 -8.96875 C -10.160156 -10.25 -10.503906 -11.570312 -10.484375 -12.9375 C -10.472656 -14.300781 -10.082031 -15.5625 -9.3125 -16.71875 C -8.820312 -17.46875 -8.257812 -18.078125 -7.625 -18.546875 C -6.988281 -19.015625 -6.34375 -19.363281 -5.6875 -19.59375 C -5.03125 -19.832031 -4.441406 -19.957031 -3.921875 -19.96875 C -3.398438 -19.976562 -3.015625 -19.90625 -2.765625 -19.75 L -3.0625 -18.59375 L -10.03125 -23.203125 C -10.476562 -23.503906 -10.757812 -23.898438 -10.875 -24.390625 C -10.988281 -24.890625 -10.894531 -25.363281 -10.59375 -25.8125 Z M 2.578125 -9.546875 C 3.078125 -10.316406 3.328125 -11.109375 3.328125 -11.921875 C 3.335938 -12.742188 3.113281 -13.53125 2.65625 -14.28125 C 2.207031 -15.039062 1.578125 -15.691406 0.765625 -16.234375 C -0.0664062 -16.785156 -0.914062 -17.117188 -1.78125 -17.234375 C -2.644531 -17.359375 -3.457031 -17.257812 -4.21875 -16.9375 C -4.988281 -16.625 -5.625 -16.082031 -6.125 -15.3125 C -6.625 -14.5625 -6.867188 -13.773438 -6.859375 -12.953125 C -6.859375 -12.128906 -6.632812 -11.335938 -6.1875 -10.578125 C -5.738281 -9.828125 -5.097656 -9.175781 -4.265625 -8.625 C -3.453125 -8.082031 -2.609375 -7.75 -1.734375 -7.625 C -0.867188 -7.507812 -0.0625 -7.613281 0.6875 -7.9375 C 1.445312 -8.257812 2.078125 -8.796875 2.578125 -9.546875 Z M 2.578125 -9.546875 "/></g></g></g><g fill="#1437d9" fill-opacity="1"><g transform="translate(595.525541, 376.619665)"><g><path d="M -1.828125 -2.125 C -2.171875 -2.082031 -2.539062 -2.171875 -2.9375 -2.390625 C -3.332031 -2.617188 -3.554688 -3.039062 -3.609375 -3.65625 C -3.648438 -4.050781 -3.570312 -4.40625 -3.375 -4.71875 C -3.175781 -5.039062 -2.832031 -5.273438 -2.34375 -5.421875 C -1.550781 -5.679688 -0.851562 -6.03125 -0.25 -6.46875 C 0.351562 -6.914062 0.882812 -7.582031 1.34375 -8.46875 C 1.46875 -8.757812 1.582031 -9.085938 1.6875 -9.453125 C 1.800781 -9.816406 1.800781 -10.179688 1.6875 -10.546875 C 1.582031 -10.921875 1.296875 -11.226562 0.828125 -11.46875 C 0.421875 -11.6875 0.03125 -11.710938 -0.34375 -11.546875 C -0.726562 -11.390625 -1.117188 -11.128906 -1.515625 -10.765625 C -1.921875 -10.398438 -2.34375 -9.976562 -2.78125 -9.5 C -3.238281 -9.019531 -3.722656 -8.53125 -4.234375 -8.03125 C -4.753906 -7.53125 -5.304688 -7.113281 -5.890625 -6.78125 C -6.472656 -6.457031 -7.113281 -6.273438 -7.8125 -6.234375 C -8.507812 -6.203125 -9.257812 -6.394531 -10.0625 -6.8125 C -10.988281 -7.289062 -11.640625 -7.953125 -12.015625 -8.796875 C -12.390625 -9.648438 -12.539062 -10.578125 -12.46875 -11.578125 C -12.40625 -12.585938 -12.140625 -13.546875 -11.671875 -14.453125 C -11.378906 -15.023438 -11 -15.585938 -10.53125 -16.140625 C -10.070312 -16.703125 -9.539062 -17.1875 -8.9375 -17.59375 C -8.34375 -18.007812 -7.695312 -18.28125 -7 -18.40625 C -6.613281 -18.46875 -6.210938 -18.414062 -5.796875 -18.25 C -5.390625 -18.09375 -5.132812 -17.738281 -5.03125 -17.1875 C -4.945312 -16.789062 -5.007812 -16.414062 -5.21875 -16.0625 C -5.4375 -15.71875 -5.71875 -15.484375 -6.0625 -15.359375 C -6.644531 -15.242188 -7.191406 -14.984375 -7.703125 -14.578125 C -8.210938 -14.179688 -8.644531 -13.640625 -9 -12.953125 C -9.144531 -12.679688 -9.265625 -12.363281 -9.359375 -12 C -9.460938 -11.632812 -9.46875 -11.273438 -9.375 -10.921875 C -9.289062 -10.578125 -9.019531 -10.285156 -8.5625 -10.046875 C -8.144531 -9.835938 -7.738281 -9.804688 -7.34375 -9.953125 C -6.945312 -10.109375 -6.550781 -10.378906 -6.15625 -10.765625 C -5.757812 -11.160156 -5.347656 -11.585938 -4.921875 -12.046875 C -4.472656 -12.523438 -4 -13 -3.5 -13.46875 C -3.007812 -13.9375 -2.472656 -14.320312 -1.890625 -14.625 C -1.304688 -14.9375 -0.675781 -15.101562 0 -15.125 C 0.675781 -15.144531 1.421875 -14.945312 2.234375 -14.53125 C 3.171875 -14.050781 3.828125 -13.359375 4.203125 -12.453125 C 4.585938 -11.554688 4.738281 -10.601562 4.65625 -9.59375 C 4.570312 -8.59375 4.304688 -7.65625 3.859375 -6.78125 C 3.296875 -5.695312 2.539062 -4.707031 1.59375 -3.8125 C 0.65625 -2.914062 -0.484375 -2.351562 -1.828125 -2.125 Z M -1.828125 -2.125 "/></g></g></g></svg>